<?xml version="1.0" encoding="UTF-8"?>
<!DOCTYPE svg PUBLIC "-//W3C//DTD SVG 1.1//EN" "http://www.w3.org/Graphics/SVG/1.1/DTD/svg11.dtd">
<!-- Creator: CorelDRAW 2018 (64 Bit) -->
<svg xmlns="http://www.w3.org/2000/svg" xml:space="preserve" width="535px" height="161px" version="1.1" style="shape-rendering:geometricPrecision; text-rendering:geometricPrecision; image-rendering:optimizeQuality; fill-rule:evenodd; clip-rule:evenodd"
viewBox="0 0 535 161"
 xmlns:xlink="http://www.w3.org/1999/xlink">
 <defs>
  <style type="text/css">
   <![CDATA[
    .fil0 {fill:white}
   ]]>
  </style>
 </defs>
 <g id="Camada_x0020_1">
  <metadata id="CorelCorpID_0Corel-Layer"/>
  <path class="fil0" d="M32.86 143.51l9.62 2.64c-1.36,4.79 -3.8,8.46 -7.31,11 -3.49,2.54 -7.86,3.81 -13.1,3.81 -7.2,0 -12.64,-2.39 -16.31,-7.18 -3.67,-4.78 -5.51,-11.85 -5.51,-21.17 0,-9.16 1.94,-16.23 5.84,-21.2 3.89,-4.97 9.42,-7.46 16.56,-7.46 4.99,0 9.08,1.24 12.28,3.72 3.2,2.49 5.34,6.08 6.4,10.77l-9.59 2.35c-0.7,-2.65 -1.85,-4.66 -3.48,-6.03 -1.63,-1.36 -3.68,-2.05 -6.19,-2.05 -3.77,0 -6.58,1.66 -8.43,4.97 -1.87,3.32 -2.8,8.31 -2.8,15.02 0,6.49 0.93,11.29 2.8,14.39 1.85,3.1 4.74,4.65 8.66,4.65 2.54,0 4.77,-0.74 6.65,-2.21 1.89,-1.49 3.18,-3.5 3.91,-6.02zm58.32 -107.7c0,-16.06 -9.74,-29.85 -23.63,-35.77 -13.89,5.92 -23.63,19.71 -23.63,35.77 0,16.06 9.74,29.84 23.63,35.77 13.89,-5.93 23.63,-19.71 23.63,-35.77zm-90.9 44.77l138.72 0 0 13.72 -138.72 0 0 -13.72zm497.88 65.67l5.79 -1.9c1,3.51 2.69,6.3 5.1,8.32 2.4,2.02 5.19,3.03 8.34,3.03 3.49,0 6.28,-0.87 8.37,-2.63 2.08,-1.74 3.12,-4.07 3.12,-6.97 0,-1.72 -0.3,-3.2 -0.93,-4.47 -0.62,-1.26 -1.54,-2.32 -2.79,-3.17 -1.78,-1.19 -4.88,-2.58 -9.27,-4.16 -1.57,-0.58 -2.75,-1.01 -3.54,-1.31 -4.64,-1.81 -7.91,-3.81 -9.82,-6 -1.89,-2.18 -2.84,-4.93 -2.84,-8.25 0,-4.45 1.47,-8.01 4.41,-10.69 2.94,-2.68 6.86,-4.03 11.75,-4.03 4.25,0 7.88,1.16 10.85,3.47 2.96,2.31 5.08,5.66 6.37,10.03l-5.48 1.6c-0.9,-3.26 -2.4,-5.73 -4.51,-7.44 -2.11,-1.7 -4.73,-2.55 -7.85,-2.55 -2.95,0 -5.3,0.81 -7.05,2.44 -1.75,1.63 -2.62,3.81 -2.62,6.57 0,1.29 0.29,2.49 0.87,3.58 0.59,1.09 1.49,2.13 2.74,3.13 1.22,0.94 4.02,2.22 8.44,3.83 1.41,0.5 2.51,0.89 3.27,1.18 5.23,1.98 8.85,4.16 10.86,6.52 2.01,2.35 3.01,5.46 3.01,9.34 0,4.58 -1.56,8.27 -4.67,11.06 -3.12,2.78 -7.24,4.18 -12.42,4.18 -4.92,0 -9.04,-1.24 -12.32,-3.72 -3.26,-2.48 -5.66,-6.14 -7.18,-10.99zm-49.68 13.8l0 -55.11 8.68 0 25.32 42.97 0 -42.97 5.71 0 0 55.11 -4.72 0 -29.27 -48.79 0 48.79 -5.72 0zm-48.32 -27.58c0,7.3 1.38,12.98 4.15,17.05 2.76,4.07 6.58,6.11 11.47,6.11 4.89,0 8.72,-2.04 11.47,-6.11 2.77,-4.07 4.16,-9.75 4.16,-17.05 0,-7.32 -1.39,-13.01 -4.16,-17.08 -2.75,-4.07 -6.58,-6.11 -11.47,-6.11 -4.89,0 -8.71,2.04 -11.47,6.11 -2.77,4.07 -4.15,9.76 -4.15,17.08zm-6.18 -0.02c0,-8.65 1.98,-15.56 5.93,-20.7 3.96,-5.15 9.25,-7.73 15.87,-7.73 6.62,0 11.92,2.57 15.87,7.69 3.95,5.12 5.93,12.04 5.93,20.74 0,8.69 -1.98,15.6 -5.93,20.77 -3.95,5.16 -9.25,7.74 -15.87,7.74 -6.59,0 -11.88,-2.58 -15.84,-7.74 -3.98,-5.17 -5.96,-12.08 -5.96,-20.77zm-17.47 27.6l0 -55.11 6.18 0 0 55.11 -6.18 0zm-31.84 0l0 -49.85 -16.08 0 0 -5.26 38.41 0 0 5.26 -16.08 0 0 49.85 -6.25 0zm-64.71 -55.11l6.02 0 0 35.54c0,2.48 0.11,4.35 0.33,5.61 0.23,1.24 0.59,2.37 1.12,3.36 1.01,1.98 2.6,3.52 4.76,4.61 2.16,1.1 4.69,1.64 7.58,1.64 2.95,0 5.5,-0.54 7.66,-1.64 2.16,-1.09 3.75,-2.63 4.77,-4.61 0.52,-1.04 0.89,-2.22 1.12,-3.52 0.21,-1.3 0.33,-3.45 0.33,-6.45l0 -34.54 6.02 0 0 36.51c0,6.36 -1.69,11.22 -5.08,14.53 -3.38,3.32 -8.34,4.98 -14.83,4.98 -6.53,0 -11.46,-1.64 -14.8,-4.93 -3.34,-3.28 -5,-8.14 -5,-14.58l0 -36.51zm-36.46 55.11l0 -55.11 6.25 0 0 49.85 24.62 0 0 5.26 -30.87 0zm-48.71 -27.58c0,7.3 1.39,12.98 4.16,17.05 2.75,4.07 6.58,6.11 11.47,6.11 4.89,0 8.71,-2.04 11.47,-6.11 2.77,-4.07 4.15,-9.75 4.15,-17.05 0,-7.32 -1.38,-13.01 -4.15,-17.08 -2.76,-4.07 -6.58,-6.11 -11.47,-6.11 -4.89,0 -8.72,2.04 -11.47,6.11 -2.77,4.07 -4.16,9.76 -4.16,17.08zm-6.17 -0.02c0,-8.65 1.98,-15.56 5.93,-20.7 3.95,-5.15 9.25,-7.73 15.87,-7.73 6.61,0 11.91,2.57 15.86,7.69 3.95,5.12 5.94,12.04 5.94,20.74 0,8.69 -1.99,15.6 -5.94,20.77 -3.95,5.16 -9.25,7.74 -15.86,7.74 -6.6,0 -11.88,-2.58 -15.84,-7.74 -3.98,-5.17 -5.96,-12.08 -5.96,-20.77zm-43.6 13.8l5.78 -1.9c1,3.51 2.69,6.3 5.11,8.32 2.4,2.02 5.18,3.03 8.33,3.03 3.49,0 6.29,-0.87 8.37,-2.63 2.08,-1.74 3.13,-4.07 3.13,-6.97 0,-1.72 -0.31,-3.2 -0.93,-4.47 -0.62,-1.26 -1.55,-2.32 -2.8,-3.17 -1.78,-1.19 -4.87,-2.58 -9.27,-4.16 -1.56,-0.58 -2.74,-1.01 -3.53,-1.31 -4.65,-1.81 -7.92,-3.81 -9.82,-6 -1.89,-2.18 -2.85,-4.93 -2.85,-8.25 0,-4.45 1.48,-8.01 4.41,-10.69 2.95,-2.68 6.86,-4.03 11.75,-4.03 4.26,0 7.88,1.16 10.85,3.47 2.96,2.31 5.08,5.66 6.38,10.03l-5.49 1.6c-0.9,-3.26 -2.4,-5.73 -4.51,-7.44 -2.11,-1.7 -4.73,-2.55 -7.85,-2.55 -2.95,0 -5.3,0.81 -7.05,2.44 -1.74,1.63 -2.62,3.81 -2.62,6.57 0,1.29 0.29,2.49 0.88,3.58 0.58,1.09 1.49,2.13 2.73,3.13 1.22,0.94 4.03,2.22 8.45,3.83 1.41,0.5 2.5,0.89 3.26,1.18 5.24,1.98 8.86,4.16 10.86,6.52 2.01,2.35 3.01,5.46 3.01,9.34 0,4.58 -1.56,8.27 -4.67,11.06 -3.11,2.78 -7.24,4.18 -12.41,4.18 -4.93,0 -9.05,-1.24 -12.32,-3.72 -3.27,-2.48 -5.67,-6.14 -7.18,-10.99zm-37.04 -17.45l9.08 0c3.34,0 5.8,-0.63 7.38,-1.87 1.57,-1.25 2.36,-3.19 2.36,-5.86 0,-2.63 -0.79,-4.56 -2.36,-5.8 -1.58,-1.25 -4.04,-1.87 -7.38,-1.87l-9.08 0 0 15.4zm-10.22 31.25l0 -55.42 18.78 0c7.01,0 12.23,1.36 15.65,4.08 3.41,2.72 5.13,6.87 5.13,12.48 0,3.6 -0.88,6.6 -2.64,9 -1.76,2.42 -4.28,4.08 -7.59,5l12.29 24.86 -11.21 0 -10.67 -22.49 -9.52 0 0 22.49 -10.22 0zm-36.98 -20.96l14.11 0 -7.07 -24.79 -7.04 24.79zm-15.93 20.96l16.72 -55.42 13.02 0 16.68 55.42 -10.42 0 -3.43 -12.12 -19.13 0 -3.54 12.12 -9.9 0z"/>
 </g>
</svg>
