<?xml version="1.0" encoding="UTF-8"?>
<!DOCTYPE svg PUBLIC "-//W3C//DTD SVG 1.1//EN" "http://www.w3.org/Graphics/SVG/1.1/DTD/svg11.dtd">
<!-- Creator: CorelDRAW 2018 (64 Bit) -->
<svg xmlns="http://www.w3.org/2000/svg" xml:space="preserve" width="508px" height="153px" version="1.1" style="shape-rendering:geometricPrecision; text-rendering:geometricPrecision; image-rendering:optimizeQuality; fill-rule:evenodd; clip-rule:evenodd"
viewBox="0 0 508 152.87"
 xmlns:xlink="http://www.w3.org/1999/xlink">
 <defs>
  <style type="text/css">
   <![CDATA[
    .fil0 {fill:white}
   ]]>
  </style>
 </defs>
 <g id="Camada_x0020_1">
  <metadata id="CorelCorpID_0Corel-Layer"/>
  <path class="fil0" d="M40.9 131.14l8.35 2.29c-1.18,4.16 -3.3,7.35 -6.34,9.55 -3.03,2.2 -6.82,3.31 -11.37,3.31 -6.25,0 -10.96,-2.08 -14.15,-6.23 -3.18,-4.16 -4.78,-10.28 -4.78,-18.37 0,-7.95 1.68,-14.08 5.07,-18.4 3.37,-4.31 8.17,-6.47 14.36,-6.47 4.33,0 7.88,1.08 10.66,3.23 2.78,2.16 4.63,5.28 5.55,9.35l-8.32 2.04c-0.6,-2.31 -1.61,-4.05 -3.02,-5.24 -1.41,-1.18 -3.19,-1.77 -5.37,-1.77 -3.27,0 -5.71,1.43 -7.31,4.31 -1.62,2.87 -2.43,7.2 -2.43,13.02 0,5.64 0.81,9.8 2.43,12.49 1.6,2.69 4.11,4.04 7.51,4.04 2.21,0 4.14,-0.64 5.77,-1.92 1.64,-1.29 2.76,-3.03 3.39,-5.23zm52.98 -89.45c0,-15.76 -9.55,-29.29 -23.18,-35.1 -13.64,5.81 -23.19,19.34 -23.19,35.1 0,15.75 9.55,29.28 23.18,35.09 13.64,-5.81 23.19,-19.34 23.19,-35.09zm-82.12 40.17l482.62 0 0 4 -482.62 0 0 -4zm452.74 51.66l5.01 -1.65c0.87,3.05 2.34,5.47 4.43,7.22 2.09,1.75 4.5,2.63 7.23,2.63 3.04,0 5.46,-0.76 7.27,-2.28 1.81,-1.51 2.71,-3.54 2.71,-6.05 0,-1.49 -0.27,-2.78 -0.81,-3.88 -0.54,-1.09 -1.34,-2 -2.42,-2.74 -1.54,-1.04 -4.23,-2.24 -8.05,-3.62 -1.35,-0.49 -2.38,-0.87 -3.06,-1.13 -4.04,-1.57 -6.87,-3.31 -8.52,-5.21 -1.64,-1.89 -2.47,-4.27 -2.47,-7.16 0,-3.86 1.28,-6.94 3.82,-9.27 2.56,-2.33 5.96,-3.49 10.2,-3.49 3.69,0 6.83,1 9.41,3.01 2.57,2 4.41,4.9 5.54,8.69l-4.77 1.39c-0.78,-2.82 -2.08,-4.97 -3.91,-6.45 -1.83,-1.47 -4.1,-2.21 -6.81,-2.21 -2.56,0 -4.6,0.7 -6.12,2.11 -1.51,1.42 -2.27,3.31 -2.27,5.7 0,1.13 0.26,2.16 0.76,3.11 0.51,0.95 1.29,1.85 2.37,2.71 1.06,0.82 3.5,1.93 7.33,3.33 1.23,0.43 2.17,0.77 2.84,1.02 4.54,1.73 7.68,3.61 9.42,5.66 1.74,2.04 2.61,4.74 2.61,8.1 0,3.98 -1.35,7.18 -4.06,9.6 -2.7,2.41 -6.28,3.63 -10.76,3.63 -4.28,0 -7.85,-1.08 -10.69,-3.23 -2.84,-2.15 -4.92,-5.33 -6.23,-9.54zm-43.11 11.97l0 -47.81 7.53 0 21.97 37.29 0 -37.29 4.96 0 0 47.81 -4.1 0 -25.4 -42.32 0 42.32 -4.96 0zm-41.92 -23.93c0,6.34 1.2,11.27 3.6,14.8 2.39,3.53 5.71,5.3 9.95,5.3 4.25,0 7.56,-1.77 9.96,-5.3 2.4,-3.53 3.6,-8.46 3.6,-14.8 0,-6.34 -1.2,-11.28 -3.6,-14.81 -2.4,-3.54 -5.71,-5.3 -9.96,-5.3 -4.24,0 -7.56,1.76 -9.95,5.3 -2.4,3.53 -3.6,8.47 -3.6,14.81zm-5.36 -0.01c0,-7.5 1.72,-13.5 5.15,-17.96 3.43,-4.47 8.02,-6.7 13.76,-6.7 5.75,0 10.34,2.22 13.77,6.67 3.43,4.44 5.15,10.44 5.15,17.99 0,7.54 -1.72,13.54 -5.15,18.02 -3.43,4.48 -8.02,6.72 -13.77,6.72 -5.72,0 -10.3,-2.24 -13.74,-6.72 -3.45,-4.48 -5.17,-10.48 -5.17,-18.02zm-15.16 23.94l0 -47.81 5.36 0 0 47.81 -5.36 0zm-27.63 0l0 -43.25 -13.95 0 0 -4.56 33.33 0 0 4.56 -13.95 0 0 43.25 -5.43 0zm-56.14 -47.81l5.22 0 0 30.84c0,2.15 0.1,3.77 0.29,4.86 0.2,1.08 0.52,2.06 0.97,2.92 0.88,1.72 2.26,3.05 4.13,4 1.88,0.95 4.07,1.42 6.58,1.42 2.56,0 4.78,-0.47 6.65,-1.42 1.87,-0.95 3.25,-2.28 4.13,-4 0.45,-0.9 0.77,-1.93 0.97,-3.05 0.19,-1.14 0.29,-3 0.29,-5.6l0 -29.97 5.22 0 0 31.68c0,5.52 -1.46,9.73 -4.41,12.61 -2.93,2.87 -7.23,4.32 -12.86,4.32 -5.66,0 -9.94,-1.43 -12.84,-4.28 -2.9,-2.84 -4.34,-7.06 -4.34,-12.65l0 -31.68zm-31.63 47.81l0 -47.81 5.42 0 0 43.25 21.36 0 0 4.56 -26.78 0zm-42.26 -23.93c0,6.34 1.2,11.27 3.6,14.8 2.39,3.53 5.71,5.3 9.96,5.3 4.24,0 7.56,-1.77 9.95,-5.3 2.4,-3.53 3.6,-8.46 3.6,-14.8 0,-6.34 -1.2,-11.28 -3.6,-14.81 -2.39,-3.54 -5.71,-5.3 -9.95,-5.3 -4.25,0 -7.57,1.76 -9.96,5.3 -2.4,3.53 -3.6,8.47 -3.6,14.81zm-5.36 -0.01c0,-7.5 1.72,-13.5 5.15,-17.96 3.43,-4.47 8.02,-6.7 13.77,-6.7 5.74,0 10.33,2.22 13.76,6.67 3.43,4.44 5.15,10.44 5.15,17.99 0,7.54 -1.72,13.54 -5.15,18.02 -3.43,4.48 -8.02,6.72 -13.76,6.72 -5.72,0 -10.31,-2.24 -13.75,-6.72 -3.45,-4.48 -5.17,-10.48 -5.17,-18.02zm-37.82 11.97l5.01 -1.65c0.87,3.05 2.34,5.47 4.43,7.22 2.08,1.75 4.5,2.63 7.23,2.63 3.03,0 5.46,-0.76 7.26,-2.28 1.81,-1.51 2.72,-3.54 2.72,-6.05 0,-1.49 -0.27,-2.78 -0.81,-3.88 -0.54,-1.09 -1.34,-2 -2.42,-2.74 -1.55,-1.04 -4.23,-2.24 -8.05,-3.62 -1.35,-0.49 -2.38,-0.87 -3.06,-1.13 -4.04,-1.57 -6.87,-3.31 -8.52,-5.21 -1.64,-1.89 -2.47,-4.27 -2.47,-7.16 0,-3.86 1.28,-6.94 3.82,-9.27 2.56,-2.33 5.95,-3.49 10.2,-3.49 3.69,0 6.83,1 9.41,3.01 2.57,2 4.41,4.9 5.53,8.69l-4.76 1.39c-0.78,-2.82 -2.08,-4.97 -3.91,-6.45 -1.83,-1.47 -4.1,-2.21 -6.81,-2.21 -2.56,0 -4.6,0.7 -6.12,2.11 -1.51,1.42 -2.27,3.31 -2.27,5.7 0,1.13 0.25,2.16 0.76,3.11 0.51,0.95 1.29,1.85 2.37,2.71 1.06,0.82 3.49,1.93 7.33,3.33 1.22,0.43 2.17,0.77 2.83,1.02 4.54,1.73 7.69,3.61 9.43,5.66 1.74,2.04 2.61,4.74 2.61,8.1 0,3.98 -1.36,7.18 -4.06,9.6 -2.7,2.41 -6.28,3.63 -10.77,3.63 -4.27,0 -7.84,-1.08 -10.69,-3.23 -2.83,-2.15 -4.91,-5.33 -6.22,-9.54zm-52.04 -15.14l7.88 0c2.9,0 5.04,-0.54 6.41,-1.62 1.36,-1.08 2.05,-2.77 2.05,-5.08 0,-2.28 -0.69,-3.96 -2.05,-5.04 -1.37,-1.08 -3.51,-1.62 -6.41,-1.62l-7.88 0 0 13.36zm-8.86 27.11l0 -48.07 16.29 0c6.09,0 10.61,1.18 13.58,3.53 2.96,2.36 4.45,5.97 4.45,10.83 0,3.13 -0.76,5.73 -2.29,7.81 -1.52,2.1 -3.71,3.54 -6.58,4.33l10.66 21.57 -9.72 0 -9.26 -19.51 -8.27 0 0 19.51 -8.86 0zm-32.08 -18.18l12.24 0 -6.14 -21.51 -6.1 21.51zm-13.82 18.18l14.5 -48.07 11.3 0 14.47 48.07 -9.04 0 -2.97 -10.51 -16.6 0 -3.08 10.51 -8.58 0z"/>
 </g>
</svg>
